<svg width="497" height="131" viewBox="0 0 497 131" fill="none" xmlns="http://www.w3.org/2000/svg">
<path d="M259.422 70.1571C261.422 67.6571 262.422 64.5571 262.422 60.8571C262.422 57.1571 261.422 54.0572 259.322 51.5572C257.322 49.0572 254.622 47.4571 251.422 46.6571C249.322 46.1571 245.522 45.8571 239.722 45.8571H228.022V98.3571H237.022V75.8571H238.322C244.522 75.8571 248.722 75.5572 251.122 75.0572C254.622 74.2572 257.422 72.6571 259.422 70.1571ZM252.222 64.2571C251.622 65.2571 250.722 65.9571 249.622 66.3571C248.722 66.6571 246.922 67.1571 243.122 67.1571L237.022 67.0572V54.8571H243.422C247.122 54.8571 248.922 55.2572 249.722 55.5572C250.722 55.9572 251.522 56.6571 252.222 57.6571C252.922 58.6571 253.222 59.7571 253.222 60.9571C253.222 62.1571 252.922 63.2571 252.222 64.2571ZM283.222 123.257V125.457H286.822C286.522 126.157 286.022 126.757 285.522 127.057C284.922 127.357 284.322 127.557 283.422 127.557C282.222 127.557 281.122 127.157 280.322 126.357C279.522 125.557 279.022 124.557 279.022 123.357C279.022 122.157 279.422 121.257 280.222 120.457C281.022 119.657 282.022 119.257 283.222 119.257C284.622 119.257 285.822 119.857 286.922 120.957L288.622 119.357C287.822 118.557 287.122 117.957 286.322 117.657C285.422 117.257 284.422 117.057 283.322 117.057C281.322 117.057 279.622 117.757 278.322 119.257C277.222 120.457 276.722 121.857 276.722 123.557C276.722 124.757 277.022 125.857 277.622 126.857C278.222 127.857 279.022 128.657 280.022 129.257C281.022 129.857 282.122 130.057 283.422 130.057C284.622 130.057 285.622 129.757 286.522 129.257C287.422 128.757 288.122 128.057 288.722 127.057C289.322 126.057 289.522 125.057 289.522 123.957V123.457H283.222V123.257ZM316.222 116.857C315.022 116.857 314.022 117.157 313.022 117.757C312.022 118.357 311.222 119.157 310.622 120.057C310.022 121.057 309.722 122.157 309.722 123.357C309.722 125.157 310.322 126.657 311.522 127.957C312.722 129.257 314.322 129.857 316.122 129.857C317.922 129.857 319.422 129.257 320.622 127.957C321.822 126.757 322.522 125.157 322.522 123.357C322.522 121.557 321.922 119.957 320.622 118.757C319.422 117.457 317.922 116.857 316.222 116.857ZM319.022 126.257C318.222 127.057 317.322 127.457 316.222 127.457C315.222 127.457 314.322 127.157 313.622 126.557C312.622 125.757 312.122 124.657 312.122 123.357C312.122 122.157 312.522 121.157 313.322 120.357C314.122 119.557 315.022 119.157 316.222 119.157C317.322 119.157 318.322 119.557 319.122 120.357C319.922 121.157 320.322 122.157 320.322 123.357C320.222 124.457 319.822 125.457 319.022 126.257ZM38.4216 45.8571H25.7217L9.32166 61.2571V45.8571H0.22168V98.3571H9.32166V79.1571L27.5216 98.4571H39.7217L12.8217 69.7571L38.4216 45.8571ZM116.522 79.4571L87.4216 45.9571H83.3217V98.4571H92.5216V65.3571L121.322 98.4571H125.422V45.9571H116.422V79.4571H116.522ZM53.2217 98.4571H62.2217V45.9571H53.2217V98.4571ZM168.922 79.9571H183.822C183.022 82.8571 181.422 85.1571 179.022 87.1571C176.022 89.6571 172.222 90.8571 167.722 90.8571C164.022 90.8571 160.522 89.9571 157.422 88.2571C154.322 86.5571 151.922 84.2571 150.122 81.2571C148.422 78.3571 147.522 75.1571 147.522 71.9571C147.522 68.7571 148.422 65.7571 150.022 62.9571C151.722 60.1571 154.122 57.8571 157.222 56.1571C163.022 53.0571 169.222 52.7571 175.622 55.4571C178.522 56.7571 181.322 58.5572 183.822 61.0572L185.222 62.4571L192.022 55.9571L190.422 54.4571C186.822 51.0571 183.022 48.4571 179.222 46.9571C175.322 45.3571 171.222 44.5571 166.822 44.5571C161.422 44.5571 156.522 45.7571 152.222 48.1571C147.922 50.5571 144.422 53.9571 141.922 58.1571C139.422 62.4571 138.222 67.0571 138.222 71.9571C138.222 78.5571 140.422 84.5572 144.722 89.5572C150.322 96.1572 158.022 99.4571 167.522 99.4571C175.422 99.4571 181.822 97.0571 186.622 92.2571C191.422 87.4571 193.822 80.9571 193.922 72.9571V70.8571H168.922V79.9571ZM236.522 117.157H233.722L230.422 121.357V117.157H228.022V129.457H230.422V123.957L234.222 129.457H237.022L232.322 122.657L236.522 117.157ZM245.422 129.457H247.722V117.157H245.422V129.457ZM264.922 125.257L259.622 117.157H257.322V129.457H259.622V121.357L264.922 129.457H267.222V117.157H264.922V125.257ZM471.822 129.457H478.522V127.157H474.122V123.957H478.522V121.657H474.122V119.457H478.522V117.157H471.822V129.457ZM461.722 122.757C462.122 122.257 462.322 121.557 462.322 120.757C462.322 119.957 462.122 119.357 461.822 118.757C461.422 118.157 461.022 117.757 460.422 117.557C459.822 117.357 458.922 117.157 457.522 117.157H455.022V129.457H457.322V124.257H457.522L460.322 129.457H462.922L460.022 123.957C460.722 123.757 461.322 123.257 461.722 122.757ZM458.022 121.957H457.322V119.457H457.922C458.522 119.457 459.022 119.457 459.222 119.557C459.422 119.657 459.622 119.757 459.822 119.957C459.922 120.157 460.022 120.357 460.022 120.657C460.022 121.157 459.922 121.457 459.622 121.657C459.322 121.857 458.822 121.957 458.022 121.957ZM439.622 129.457H441.922V123.957H445.722V121.657H441.922V119.457H445.722V117.157H439.622V129.457ZM478.522 75.7571C481.022 75.4571 483.122 74.9571 484.822 74.2571C487.522 73.0571 489.622 71.2571 491.022 68.9571C492.422 66.6571 493.222 63.9571 493.222 60.8571C493.222 57.2571 492.122 54.0572 490.022 51.5572C487.922 49.0572 485.222 47.3571 481.922 46.6571C479.822 46.1571 476.122 45.9571 470.522 45.9571H458.522V98.4571H467.522V76.2571L484.722 98.4571H496.022L478.522 75.7571ZM467.622 67.0572V54.8571H474.322C478.122 54.8571 479.822 55.2572 480.622 55.5572C481.622 55.9572 482.422 56.6571 483.122 57.6571C483.822 58.6571 484.122 59.6571 484.122 60.9571C484.122 62.2571 483.822 63.3571 483.122 64.3571C482.522 65.3571 481.622 66.0571 480.522 66.4571C479.622 66.8571 477.822 67.2571 474.122 67.2571L467.622 67.0572ZM297.022 44.6571C292.122 44.6571 287.522 45.8571 283.322 48.2571C279.122 50.6571 275.822 54.0571 273.322 58.3571C270.922 62.6571 269.722 67.3571 269.722 72.3571C269.722 79.8571 272.422 86.3571 277.722 91.6571C283.022 96.9571 289.622 99.6571 297.322 99.6571C304.922 99.6571 311.522 96.9571 316.822 91.6571C322.122 86.3571 324.822 79.7571 324.822 72.1571C324.822 64.4571 322.122 57.8571 316.822 52.6571C311.522 47.3571 304.822 44.6571 297.022 44.6571ZM313.322 81.6571C311.722 84.4571 309.522 86.7571 306.622 88.3571C303.722 89.9571 300.622 90.8571 297.222 90.8571C292.222 90.8571 287.822 89.0572 284.322 85.5572C280.822 82.0572 278.922 77.6571 278.922 72.4571C278.922 68.9571 279.722 65.7571 281.322 62.9571C282.922 60.1571 285.222 57.8571 288.022 56.1571C290.922 54.4571 293.922 53.6571 297.122 53.6571C300.422 53.6571 303.522 54.4571 306.422 56.1571C309.322 57.8571 311.622 60.0571 313.222 62.8571C314.822 65.6571 315.622 68.7571 315.622 72.2571C315.722 75.6571 314.922 78.7571 313.322 81.6571ZM487.722 129.457H494.422V127.157H490.022V123.957H494.422V121.657H490.022V119.457H494.422V117.157H487.722V129.457ZM414.022 121.557L411.722 117.157H409.222L412.822 124.157V129.457H415.222V124.157L418.822 117.157H416.322L414.022 121.557ZM365.622 117.857C364.722 117.457 363.422 117.157 361.622 117.157H358.822V129.457H361.622C363.222 129.457 364.322 129.357 365.022 129.157C365.622 128.957 366.222 128.557 366.822 128.057C367.422 127.557 367.822 126.857 368.122 126.057C368.422 125.257 368.622 124.357 368.622 123.457C368.622 122.157 368.322 120.957 367.822 119.957C367.222 118.957 366.522 118.257 365.622 117.857ZM365.822 125.557C365.522 126.157 365.122 126.557 364.622 126.757C364.122 126.957 363.322 127.157 362.322 127.157H361.222V119.357H362.022C363.522 119.357 364.522 119.657 365.222 120.357C365.922 121.057 366.322 122.057 366.322 123.357C366.222 124.257 366.122 124.957 365.822 125.557ZM442.222 89.5572H417.122V74.7571H438.922V65.8571H417.122V54.9571H442.222V46.0571H408.122V98.5572H442.222V89.5572ZM331.822 129.457H334.122V123.957H337.922V121.657H334.122V119.457H337.922V117.157H331.822V129.457ZM394.922 45.8571H385.622L376.822 76.2571L364.822 45.8571H360.922L348.822 76.2571L340.222 45.8571H330.922L345.822 98.3571H349.722L362.922 65.3571L375.822 98.3571H379.722L394.922 45.8571ZM383.822 124.857C383.822 125.657 383.722 126.257 383.622 126.557C383.522 126.857 383.322 127.057 383.022 127.257C382.722 127.457 382.322 127.557 381.922 127.557C381.522 127.557 381.222 127.457 380.922 127.257C380.622 127.057 380.422 126.857 380.322 126.557C380.222 126.257 380.122 125.757 380.122 125.057V117.057H377.722V124.357C377.722 125.857 377.822 126.857 378.122 127.457C378.422 128.057 378.922 128.557 379.522 128.957C380.222 129.357 380.922 129.557 381.822 129.557C382.522 129.557 383.122 129.457 383.622 129.257C384.122 129.057 384.622 128.757 385.022 128.257C385.422 127.857 385.722 127.357 385.822 126.857C385.922 126.357 386.022 125.557 386.022 124.257V117.157H383.622V124.857H383.822ZM394.622 119.457H396.822V129.457H399.222V119.457H401.422V117.157H394.622V119.457Z" fill="white"/>
<path d="M41.7218 23.2571C40.9218 20.4571 38.9217 12.9571 44.0217 11.0571C44.4217 10.9571 44.6217 10.5571 44.5217 10.2571C44.5217 9.95714 44.2218 9.65714 43.7218 9.65714C37.8218 9.65714 35.7217 5.85715 34.6217 3.85715C34.4217 3.55715 34.3218 3.25713 34.2218 3.05713C33.9218 2.65713 33.3217 2.55712 33.0217 2.95712C32.9217 3.05712 32.8217 3.45712 33.0217 3.95712C33.5217 5.35712 39.0218 20.1571 40.3218 23.7571L40.6217 24.4571C40.7217 24.7571 41.0217 25.0571 41.4217 25.0571C41.6217 25.0571 41.8217 24.9571 41.9217 24.7571C42.0217 24.5571 42.1217 24.3571 42.0217 24.0571C41.9217 23.8571 41.8218 23.5571 41.7218 23.2571ZM49.0217 10.8571C55.2217 11.8571 56.2217 16.7571 56.9217 24.0571C57.0217 24.9571 57.6218 25.0571 57.7218 25.0571C57.8218 25.0571 58.4217 25.0571 58.5217 24.0571C59.3217 16.7571 60.2217 11.8571 66.4217 10.8571C66.8217 10.7571 67.1217 10.4571 67.1217 10.0571C67.1217 9.75713 66.9218 9.35715 66.3218 9.35715C60.3218 8.85715 59.4218 5.05715 58.7218 2.35715C58.6218 1.95715 58.5217 1.65715 58.4217 1.35715C58.2217 0.657147 57.8217 0.557129 57.6217 0.557129C57.4217 0.557129 57.0218 0.657147 56.8218 1.35715C56.7218 1.65715 56.6217 2.05715 56.5217 2.35715C55.8217 5.15715 54.9217 8.95715 48.9217 9.35715C48.3217 9.35715 48.1217 9.75713 48.1217 10.0571C48.3217 10.3571 48.6217 10.7571 49.0217 10.8571ZM72.3218 28.7571H43.1217C42.9217 28.7571 42.7217 28.8571 42.5217 29.0571C42.4217 29.2571 42.3217 29.4571 42.4217 29.6571L43.3218 32.0571C43.4218 32.3571 43.7217 32.5571 44.0217 32.5571H71.5217C71.8217 32.5571 72.1218 32.3571 72.2218 32.0571L73.1217 29.6571C73.2217 29.4571 73.1217 29.2571 73.0217 29.0571C72.7217 28.8571 72.5218 28.7571 72.3218 28.7571ZM82.5217 2.85715C82.2217 2.45715 81.6218 2.45712 81.3218 2.95712C81.2218 3.15712 81.0217 3.45714 80.9217 3.75714C79.8217 5.75714 77.7218 9.55713 71.8218 9.55713C71.3218 9.55713 71.0217 9.85713 71.0217 10.1571C70.9217 10.5571 71.1217 10.8571 71.5217 11.0571C76.6217 12.9571 74.6218 20.4571 73.8218 23.2571C73.7218 23.5571 73.6217 23.8571 73.6217 24.0571C73.5217 24.3571 73.6218 24.5571 73.7218 24.7571C73.8218 24.9571 74.0218 25.0571 74.2218 25.0571C74.5218 25.0571 74.8217 24.8571 75.0217 24.4571L75.1217 24.0571C76.1217 21.3571 82.0217 5.35712 82.6217 3.95712C82.7217 3.35712 82.6217 3.05715 82.5217 2.85715Z" fill="#EAA216"/>
</svg>
