<svg width="497" height="130" viewBox="0 0 497 130" fill="none" xmlns="http://www.w3.org/2000/svg">
<path d="M260.041 69.7892C262.041 67.2892 263.041 64.1892 263.041 60.4892C263.041 56.7892 262.041 53.6892 259.941 51.1892C257.941 48.6892 255.241 47.0892 252.041 46.2892C249.941 45.7892 246.141 45.4892 240.341 45.4892H228.641V97.9892H237.641V75.4892H238.941C245.141 75.4892 249.341 75.1892 251.741 74.6892C255.341 73.8892 258.041 72.2892 260.041 69.7892ZM252.941 63.8892C252.341 64.8892 251.441 65.5892 250.341 65.9892C249.441 66.2892 247.641 66.7892 243.841 66.7892L237.741 66.6892V54.4892H244.141C247.841 54.4892 249.641 54.8892 250.441 55.1892C251.441 55.5892 252.241 56.2892 252.941 57.2892C253.641 58.2892 253.941 59.3892 253.941 60.5892C253.941 61.7892 253.541 62.8892 252.941 63.8892ZM283.841 122.889V125.089H287.441C287.141 125.789 286.641 126.389 286.141 126.689C285.541 126.989 284.941 127.189 284.041 127.189C282.841 127.189 281.741 126.789 280.941 125.989C280.141 125.189 279.641 124.189 279.641 122.989C279.641 121.789 280.041 120.889 280.841 120.089C281.641 119.289 282.641 118.889 283.841 118.889C285.241 118.889 286.441 119.489 287.541 120.589L289.241 118.989C288.441 118.189 287.741 117.589 286.941 117.289C286.041 116.889 285.041 116.689 283.941 116.689C281.941 116.689 280.241 117.389 278.941 118.889C277.841 120.089 277.341 121.489 277.341 123.189C277.341 124.389 277.641 125.489 278.241 126.489C278.841 127.489 279.641 128.289 280.641 128.889C281.641 129.489 282.741 129.689 284.041 129.689C285.241 129.689 286.241 129.389 287.141 128.889C288.041 128.389 288.741 127.689 289.341 126.689C289.941 125.689 290.141 124.689 290.141 123.589V123.089H283.841V122.889ZM316.841 116.489C315.641 116.489 314.641 116.789 313.641 117.389C312.641 117.989 311.841 118.789 311.241 119.689C310.641 120.689 310.341 121.789 310.341 122.989C310.341 124.789 310.941 126.289 312.141 127.589C313.341 128.889 314.941 129.489 316.741 129.489C318.541 129.489 320.041 128.889 321.241 127.589C322.441 126.389 323.141 124.789 323.141 122.989C323.141 121.189 322.541 119.589 321.241 118.389C320.141 117.089 318.641 116.489 316.841 116.489ZM319.741 125.889C318.941 126.689 318.041 127.089 316.941 127.089C315.941 127.089 315.041 126.789 314.341 126.189C313.341 125.389 312.841 124.289 312.841 122.989C312.841 121.789 313.241 120.789 314.041 119.989C314.841 119.189 315.741 118.789 316.941 118.789C318.041 118.789 319.041 119.189 319.841 119.989C320.641 120.789 321.041 121.789 321.041 122.989C320.841 124.089 320.541 125.089 319.741 125.889ZM39.0409 45.4892H26.3408L9.9408 60.8892V45.4892H0.84082V97.9892H9.9408V78.7892L28.1409 98.0892H40.3408L13.4408 69.3892L39.0409 45.4892ZM117.141 79.0892L88.0409 45.5892H83.9408V98.0892H93.1409V64.9892L121.941 98.0892H126.041V45.5892H117.041V79.0892H117.141ZM53.8408 98.0892H62.8408V45.5892H53.8408V98.0892ZM169.641 79.5892H184.541C183.741 82.4892 182.141 84.7892 179.741 86.7892C176.741 89.2892 172.941 90.4892 168.441 90.4892C164.741 90.4892 161.241 89.5892 158.141 87.8892C155.041 86.1892 152.641 83.8892 150.841 80.8892C149.141 77.9892 148.241 74.7892 148.241 71.5892C148.241 68.3892 149.141 65.3892 150.741 62.5892C152.441 59.7892 154.841 57.4892 157.941 55.7892C163.741 52.6892 169.941 52.3892 176.341 55.0892C179.241 56.3892 182.041 58.1892 184.541 60.6892L185.941 62.0892L192.741 55.5892L191.141 54.0892C187.541 50.6892 183.741 48.0892 179.941 46.5892C176.041 44.9892 171.941 44.1892 167.541 44.1892C162.141 44.1892 157.241 45.3892 152.941 47.7892C148.641 50.1892 145.141 53.5892 142.641 57.7892C140.141 62.0892 138.941 66.6892 138.941 71.5892C138.941 78.1892 141.141 84.1892 145.441 89.1892C151.041 95.7892 158.741 99.0892 168.241 99.0892C176.141 99.0892 182.541 96.6892 187.341 91.8892C192.141 87.0892 194.541 80.5892 194.641 72.5892V70.4892H169.641V79.5892ZM237.141 116.789H234.341L231.041 120.989V116.789H228.641V129.089H231.041V123.589L234.841 129.089H237.641L232.941 122.289L237.141 116.789ZM246.141 129.089H248.441V116.789H246.141V129.089ZM265.641 124.889L260.341 116.789H258.041V129.089H260.341V120.989L265.641 129.089H267.941V116.789H265.641V124.889ZM472.441 129.089H479.141V126.789H474.741V123.589H479.141V121.289H474.741V119.089H479.141V116.789H472.441V129.089ZM462.341 122.389C462.741 121.889 462.941 121.189 462.941 120.389C462.941 119.589 462.741 118.989 462.441 118.389C462.041 117.789 461.641 117.389 461.041 117.189C460.441 116.989 459.541 116.789 458.141 116.789H455.641V129.089H457.941V123.889H458.141L460.941 129.089H463.541L460.641 123.589C461.341 123.389 461.941 122.889 462.341 122.389ZM458.741 121.589H458.041V119.089H458.641C459.241 119.089 459.741 119.089 459.941 119.189C460.141 119.289 460.341 119.389 460.541 119.589C460.641 119.789 460.741 119.989 460.741 120.289C460.741 120.789 460.641 121.089 460.341 121.289C459.941 121.489 459.441 121.589 458.741 121.589ZM440.241 129.089H442.541V123.589H446.341V121.289H442.541V119.089H446.341V116.789H440.241V129.089ZM479.241 75.3892C481.741 75.0892 483.841 74.5892 485.541 73.8892C488.241 72.6892 490.341 70.8892 491.741 68.5892C493.141 66.2892 493.941 63.5892 493.941 60.4892C493.941 56.8892 492.841 53.6892 490.741 51.1892C488.641 48.6892 485.941 46.9892 482.641 46.2892C480.541 45.7892 476.841 45.5892 471.241 45.5892H459.241V98.0892H468.241V75.8892L485.441 98.0892H496.741L479.241 75.3892ZM468.241 66.6892V54.4892H474.941C478.741 54.4892 480.441 54.8892 481.241 55.1892C482.241 55.5892 483.041 56.2892 483.741 57.2892C484.441 58.2892 484.741 59.2892 484.741 60.5892C484.741 61.8892 484.441 62.9892 483.741 63.9892C483.141 64.9892 482.241 65.6892 481.141 66.0892C480.241 66.4892 478.441 66.8892 474.741 66.8892L468.241 66.6892ZM297.641 44.2892C292.741 44.2892 288.141 45.4892 283.941 47.8892C279.741 50.2892 276.441 53.6892 273.941 57.9892C271.541 62.2892 270.341 66.9892 270.341 71.9892C270.341 79.4892 273.041 85.9892 278.341 91.2892C283.641 96.5892 290.241 99.2892 297.941 99.2892C305.541 99.2892 312.141 96.5892 317.441 91.2892C322.741 85.9892 325.441 79.3892 325.441 71.7892C325.441 64.0892 322.741 57.4892 317.441 52.2892C312.241 46.9892 305.541 44.2892 297.641 44.2892ZM313.941 81.2892C312.341 84.0892 310.141 86.3892 307.241 87.9892C304.341 89.5892 301.241 90.4892 297.841 90.4892C292.841 90.4892 288.441 88.6892 284.941 85.1892C281.441 81.6892 279.541 77.2892 279.541 72.0892C279.541 68.5892 280.341 65.3892 281.941 62.5892C283.541 59.7892 285.841 57.4892 288.641 55.7892C291.541 54.0892 294.541 53.2892 297.741 53.2892C301.041 53.2892 304.141 54.0892 307.041 55.7892C309.941 57.4892 312.241 59.6892 313.841 62.4892C315.441 65.2892 316.241 68.3892 316.241 71.8892C316.341 75.2892 315.541 78.3892 313.941 81.2892ZM488.341 129.089H495.041V126.789H490.641V123.589H495.041V121.289H490.641V119.089H495.041V116.789H488.341V129.089ZM414.741 121.189L412.441 116.789H409.941L413.541 123.789V129.089H415.941V123.789L419.541 116.789H417.041L414.741 121.189ZM366.341 117.489C365.441 117.089 364.141 116.789 362.341 116.789H359.541V129.089H362.341C363.941 129.089 365.041 128.989 365.741 128.789C366.341 128.589 366.941 128.189 367.541 127.689C368.141 127.189 368.541 126.489 368.841 125.689C369.141 124.889 369.341 123.989 369.341 123.089C369.341 121.789 369.041 120.589 368.541 119.589C367.841 118.589 367.141 117.889 366.341 117.489ZM366.441 125.189C366.141 125.789 365.741 126.189 365.241 126.389C364.741 126.589 363.941 126.789 362.941 126.789H361.841V118.989H362.641C364.141 118.989 365.141 119.289 365.841 119.989C366.541 120.689 366.941 121.689 366.941 122.989C366.941 123.889 366.741 124.589 366.441 125.189ZM442.941 89.1892H417.841V74.3892H439.641V65.4892H417.841V54.5892H442.941V45.6892H408.841V98.1892H442.941V89.1892ZM332.441 129.089H334.741V123.589H338.541V121.289H334.741V119.089H338.541V116.789H332.441V129.089ZM395.541 45.4892H386.241L377.441 75.8892L365.441 45.4892H361.541L349.441 75.8892L340.841 45.4892H331.541L346.441 97.9892H350.341L363.541 64.9892L376.441 97.9892H380.341L395.541 45.4892ZM384.441 124.489C384.441 125.289 384.341 125.889 384.241 126.189C384.141 126.489 383.941 126.689 383.641 126.889C383.341 127.089 382.941 127.189 382.541 127.189C382.141 127.189 381.841 127.089 381.541 126.889C381.241 126.689 381.041 126.489 380.941 126.189C380.841 125.889 380.741 125.389 380.741 124.689V116.689H378.341V123.989C378.341 125.489 378.441 126.489 378.741 127.089C379.041 127.689 379.541 128.189 380.141 128.589C380.841 128.989 381.541 129.189 382.441 129.189C383.141 129.189 383.741 129.089 384.241 128.889C384.741 128.689 385.241 128.389 385.641 127.889C386.041 127.489 386.341 126.989 386.441 126.489C386.541 125.989 386.641 125.189 386.641 123.889V116.789H384.241V124.489H384.441ZM395.341 119.089H397.541V129.089H399.941V119.089H402.141V116.789H395.341V119.089Z" fill="#034EA2"/>
<path d="M42.4409 22.8892C41.6409 20.0892 39.641 12.5892 44.741 10.6892C45.141 10.5892 45.341 10.1892 45.241 9.88922C45.241 9.58922 44.9409 9.28922 44.4409 9.28922C38.5409 9.28922 36.4409 5.48923 35.3409 3.48923C35.1409 3.18923 35.0409 2.88921 34.9409 2.68921C34.6409 2.28921 34.041 2.1892 33.741 2.5892C33.641 2.6892 33.541 3.0892 33.741 3.5892C34.241 4.9892 39.741 19.7892 41.041 23.3892L41.3409 24.0892C41.4409 24.3892 41.741 24.6892 42.141 24.6892C42.341 24.6892 42.541 24.5892 42.641 24.3892C42.741 24.1892 42.841 23.9892 42.741 23.6892C42.541 23.4892 42.5409 23.1892 42.4409 22.8892ZM49.641 10.4892C55.841 11.4892 56.841 16.3892 57.541 23.6892C57.641 24.5892 58.2409 24.6892 58.3409 24.6892C58.4409 24.6892 59.041 24.6892 59.141 23.6892C59.941 16.3892 60.841 11.4892 67.041 10.4892C67.441 10.3892 67.741 10.0892 67.741 9.68921C67.741 9.38921 67.5409 8.98923 66.9409 8.98923C60.9409 8.48923 60.0409 4.68923 59.3409 1.98923C59.2409 1.58923 59.141 1.28923 59.041 0.989227C58.841 0.289227 58.441 0.189209 58.241 0.189209C58.041 0.189209 57.6409 0.289227 57.4409 0.989227C57.3409 1.28923 57.241 1.68923 57.141 1.98923C56.441 4.78923 55.541 8.58923 49.541 8.98923C48.941 8.98923 48.741 9.38921 48.741 9.68921C48.941 9.98921 49.241 10.3892 49.641 10.4892ZM73.041 28.3892H43.8409C43.6409 28.3892 43.441 28.4892 43.241 28.6892C43.141 28.8892 43.041 29.0892 43.141 29.2892L44.041 31.6892C44.141 31.9892 44.441 32.1892 44.741 32.1892H72.241C72.541 32.1892 72.8409 31.9892 72.9409 31.6892L73.8409 29.2892C73.9409 29.0892 73.841 28.8892 73.741 28.6892C73.441 28.4892 73.241 28.3892 73.041 28.3892ZM83.141 2.48923C82.841 2.08923 82.2409 2.0892 81.9409 2.5892C81.8409 2.7892 81.641 3.08922 81.541 3.38922C80.441 5.38922 78.3409 9.18921 72.4409 9.18921C71.9409 9.18921 71.641 9.48921 71.641 9.78922C71.541 10.1892 71.741 10.4892 72.141 10.6892C77.241 12.5892 75.2409 20.0892 74.4409 22.8892C74.3409 23.1892 74.241 23.4892 74.241 23.6892C74.141 23.9892 74.2409 24.1892 74.3409 24.3892C74.4409 24.5892 74.6409 24.6892 74.8409 24.6892C75.1409 24.6892 75.441 24.4892 75.641 24.0892L75.741 23.6892C76.741 20.9892 82.641 4.9892 83.241 3.5892C83.441 2.9892 83.241 2.68923 83.141 2.48923Z" fill="#EAA216"/>
</svg>
