<svg width="67" height="59" viewBox="0 0 67 59" fill="none" xmlns="http://www.w3.org/2000/svg">
<g filter="url(#filter0_d)">
<path d="M56.2249 13.9768C55.9249 13.4768 55.1249 13.5768 54.8249 14.0768C54.6249 14.2768 54.5249 14.6768 54.3249 14.9768C53.0249 17.3768 50.6249 21.7768 43.5249 21.7768C42.9249 21.7768 42.6249 22.1768 42.5249 22.4768C42.4249 22.8768 42.7249 23.2768 43.1249 23.4768C49.1249 25.7768 46.7249 34.5768 45.8249 37.9768C45.7249 38.3768 45.6249 38.6768 45.6249 38.8768C45.5249 39.1768 45.6249 39.4768 45.8249 39.6768C46.0249 39.8768 46.2249 39.9768 46.4249 39.9768C46.8249 39.9768 47.1249 39.6768 47.3249 39.2768L47.5249 38.8768C48.7249 35.6768 55.7249 16.7768 56.3249 15.0768C56.5249 14.5768 56.4249 14.1768 56.2249 13.9768Z" fill="#EAA216"/>
<path d="M16.725 23.3768C24.025 24.5768 25.225 30.3768 26.125 38.9768C26.225 40.0768 26.925 40.1768 27.125 40.1768C27.225 40.1768 27.925 40.0768 28.125 38.9768C29.025 30.2768 30.125 24.5768 37.525 23.3768C38.025 23.2768 38.425 22.8768 38.325 22.3768C38.325 21.9768 38.025 21.5768 37.325 21.4768C30.225 20.9768 29.125 16.4768 28.325 13.1768C28.225 12.7768 28.125 12.3768 28.025 11.9768C27.825 11.0768 27.325 10.9768 27.125 10.9768C26.925 10.9768 26.425 11.0768 26.225 11.9768C26.125 12.3768 26.025 12.7768 25.925 13.1768C25.125 16.4768 24.025 20.9768 16.925 21.4768C16.225 21.5768 15.925 21.9768 15.925 22.3768C15.825 22.8768 16.225 23.2768 16.725 23.3768Z" fill="#EAA216"/>
<path d="M44.9249 44.8768C44.7249 44.6768 44.525 44.5768 44.225 44.5768H10.325V48.8768C10.425 48.9768 10.625 48.9768 10.725 48.9768H43.125C43.425 48.9768 43.8249 48.7768 43.9249 48.3768L44.9249 45.5768C45.1249 45.3768 45.1249 45.0768 44.9249 44.8768Z" fill="#EAA216"/>
</g>
<defs>
<filter id="filter0_d" x="0.324951" y="0.976807" width="66.109" height="58" filterUnits="userSpaceOnUse" color-interpolation-filters="sRGB">
<feFlood flood-opacity="0" result="BackgroundImageFix"/>
<feColorMatrix in="SourceAlpha" type="matrix" values="0 0 0 0 0 0 0 0 0 0 0 0 0 0 0 0 0 0 127 0"/>
<feOffset/>
<feGaussianBlur stdDeviation="5"/>
<feColorMatrix type="matrix" values="0 0 0 0 0.917647 0 0 0 0 0.635294 0 0 0 0 0.0862745 0 0 0 1 0"/>
<feBlend mode="normal" in2="BackgroundImageFix" result="effect1_dropShadow"/>
<feBlend mode="normal" in="SourceGraphic" in2="effect1_dropShadow" result="shape"/>
</filter>
</defs>
</svg>
